<svg xmlns="http://www.w3.org/2000/svg" width="11" height="11" viewBox="0 0 11 11">
  <path fill="#fff" d="M2.206 4.755a8.987 8.987 0 0 0 4.039 4.039l1.346-1.346a.525.525 0 0 1 .63-.143 6.839 6.839 0 0 0 2.177.344.6.6 0 0 1 .415.172.561.561 0 0 1 .187.429v2.15a.639.639 0 0 1-.6.6 10.224 10.224 0 0 1-5.229-1.389 10.262 10.262 0 0 1-3.782-3.782A10.224 10.224 0 0 1 0 .6.575.575 0 0 1 .186.186.576.576 0 0 1 .6 0h2.15a.56.56 0 0 1 .43.186.6.6 0 0 1 .172.414A6.839 6.839 0 0 0 3.7 2.778a.586.586 0 0 1-.143.63z"/>
</svg>
